<svg width="180" height="180" viewBox="0 0 1080 1080" fill="none" xmlns="http://www.w3.org/2000/svg">
<g clip-path="url(#clip0_53_2)">
<g filter="url(#filter0_iiii_53_2)">
<path d="M231.8 682.46L20.2 586.78V521L231.8 424.86V487.42L104.84 543.08C98.7067 545.84 92.2667 548.14 85.52 549.98C78.7733 551.82 73.4067 553.047 69.42 553.66C73.4067 554.273 78.7733 555.5 85.52 557.34C92.2667 558.873 98.7067 561.02 104.84 563.78L231.8 619.44V682.46ZM286.82 755.6L445.52 323.2H516.82L358.12 755.6H286.82ZM570.001 705V369.2H678.101C700.487 369.2 719.961 372.88 736.521 380.24C753.387 387.293 766.421 397.26 775.621 410.14C785.127 423.02 789.881 438.2 789.881 455.68C789.881 474.693 784.667 490.64 774.241 503.52C763.814 516.093 750.321 523.607 733.761 526.06V526.98C746.334 528.207 757.374 532.653 766.881 540.32C776.694 547.68 784.207 557.187 789.421 568.84C794.941 580.493 797.701 593.527 797.701 607.94C797.701 627.26 792.794 644.28 782.981 659C773.474 673.413 759.981 684.76 742.501 693.04C725.327 701.013 705.241 705 682.241 705H570.001ZM636.701 504.44H677.181C690.674 504.44 701.254 500.913 708.921 493.86C716.587 486.5 720.421 476.687 720.421 464.42C720.421 451.847 716.587 442.187 708.921 435.44C701.254 428.387 690.674 424.86 677.181 424.86H636.701V504.44ZM636.701 649.34H679.941C694.967 649.34 706.774 645.353 715.361 637.38C723.947 629.407 728.241 618.367 728.241 604.26C728.241 590.153 723.947 579.113 715.361 571.14C706.774 562.86 694.967 558.72 679.941 558.72H636.701V649.34ZM847.661 682.46V619.9L974.621 564.24C980.754 561.48 987.194 559.18 993.941 557.34C1000.69 555.5 1006.05 554.273 1010.04 553.66C1006.05 553.047 1000.69 551.973 993.941 550.44C987.194 548.6 980.754 546.3 974.621 543.54L847.661 487.88V424.86L1059.26 520.54V586.32L847.661 682.46Z" fill="url(#paint0_linear_53_2)"/>
</g>
</g>
<defs>
<filter id="filter0_iiii_53_2" x="12.2" y="315.2" width="1055.06" height="448.4" filterUnits="userSpaceOnUse" color-interpolation-filters="sRGB">
<feFlood flood-opacity="0" result="BackgroundImageFix"/>
<feBlend mode="normal" in="SourceGraphic" in2="BackgroundImageFix" result="shape"/>
<feColorMatrix in="SourceAlpha" type="matrix" values="0 0 0 0 0 0 0 0 0 0 0 0 0 0 0 0 0 0 127 0" result="hardAlpha"/>
<feOffset dx="4" dy="4"/>
<feGaussianBlur stdDeviation="6"/>
<feComposite in2="hardAlpha" operator="arithmetic" k2="-1" k3="1"/>
<feColorMatrix type="matrix" values="0 0 0 0 0.576471 0 0 0 0 0.2 0 0 0 0 0.917647 0 0 0 0.4 0"/>
<feBlend mode="normal" in2="shape" result="effect1_innerShadow_53_2"/>
<feColorMatrix in="SourceAlpha" type="matrix" values="0 0 0 0 0 0 0 0 0 0 0 0 0 0 0 0 0 0 127 0" result="hardAlpha"/>
<feOffset dx="8" dy="8"/>
<feGaussianBlur stdDeviation="6"/>
<feComposite in2="hardAlpha" operator="arithmetic" k2="-1" k3="1"/>
<feColorMatrix type="matrix" values="0 0 0 0 0.576471 0 0 0 0 0.2 0 0 0 0 0.917647 0 0 0 0.2 0"/>
<feBlend mode="normal" in2="effect1_innerShadow_53_2" result="effect2_innerShadow_53_2"/>
<feColorMatrix in="SourceAlpha" type="matrix" values="0 0 0 0 0 0 0 0 0 0 0 0 0 0 0 0 0 0 127 0" result="hardAlpha"/>
<feOffset dx="-4" dy="-4"/>
<feGaussianBlur stdDeviation="6"/>
<feComposite in2="hardAlpha" operator="arithmetic" k2="-1" k3="1"/>
<feColorMatrix type="matrix" values="0 0 0 0 0.231373 0 0 0 0 0.509804 0 0 0 0 0.964706 0 0 0 0.4 0"/>
<feBlend mode="normal" in2="effect2_innerShadow_53_2" result="effect3_innerShadow_53_2"/>
<feColorMatrix in="SourceAlpha" type="matrix" values="0 0 0 0 0 0 0 0 0 0 0 0 0 0 0 0 0 0 127 0" result="hardAlpha"/>
<feOffset dx="-8" dy="-8"/>
<feGaussianBlur stdDeviation="10"/>
<feComposite in2="hardAlpha" operator="arithmetic" k2="-1" k3="1"/>
<feColorMatrix type="matrix" values="0 0 0 0 0.231373 0 0 0 0 0.509804 0 0 0 0 0.964706 0 0 0 0.2 0"/>
<feBlend mode="normal" in2="effect3_innerShadow_53_2" result="effect4_innerShadow_53_2"/>
</filter>
<linearGradient id="paint0_linear_53_2" x1="-12" y1="553.5" x2="1092" y2="555" gradientUnits="userSpaceOnUse">
<stop stop-color="#9333EA"/>
<stop offset="1" stop-color="#3B82F6"/>
</linearGradient>
<clipPath id="clip0_53_2">
<rect width="1080" height="1080" rx="540" fill="white"/>
</clipPath>
</defs>
</svg> 